<svg xmlns="http://www.w3.org/2000/svg" width="256" height="256" viewBox="0 0 100 100"><rect width="100" height="100" rx="20" fill="#1472b6"></rect><path fill="#fff" d="M70.16 74.67L54.83 74.67L45.03 56.47L43.56 56.47L43.56 74.67L29.84 74.67L29.84 25.32L51.47 25.32Q57.42 25.32 61.55 27.39Q65.68 29.45 67.78 33.06Q69.88 36.66 69.88 41.14L69.88 41.14Q69.88 46.18 67.12 50Q64.35 53.81 59.03 55.42L59.03 55.42L70.16 74.67ZM43.56 36.80L43.56 47.09L50.35 47.09Q53.15 47.09 54.55 45.76Q55.95 44.43 55.95 41.91L55.95 41.91Q55.95 39.53 54.52 38.17Q53.08 36.80 50.35 36.80L50.35 36.80L43.56 36.80Z"></path></svg>