<svg xmlns="http://www.w3.org/2000/svg" width="256" height="256" viewBox="0 0 100 100"><rect width="100" height="100" rx="20" fill="#222222"></rect><path fill="#fff" d="M20.85 35.49Q25.40 35.49 28.82 37.33Q32.25 39.18 34.09 42.46Q35.94 45.74 35.94 49.92L35.94 49.92Q35.94 54.06 34.09 57.38Q32.25 60.70 28.82 62.61Q25.40 64.51 20.85 64.51L20.85 64.51L8.75 64.51L8.75 35.49L20.85 35.49ZM20.03 56.40Q23.10 56.40 24.91 54.72Q26.71 53.03 26.71 49.92L26.71 49.92Q26.71 46.80 24.91 45.12Q23.10 43.44 20.03 43.44L20.03 43.44L17.86 43.44L17.86 56.40L20.03 56.40ZM58.57 42.74L48.32 42.74L48.32 46.31L57.34 46.31L57.34 53.16L48.32 53.16L48.32 57.26L58.57 57.26L58.57 64.51L39.22 64.51L39.22 35.49L58.57 35.49L58.57 42.74ZM81.57 35.49L91.25 35.49L81.49 64.51L69.72 64.51L59.96 35.49L69.64 35.49L75.63 55.45L81.57 35.49Z"></path></svg>